{
    "accessors" : [
        {
            "bufferView" : 0, 
            "componentType" : 5123, 
            "count" : 79134, 
            "max" : [
                13419
            ], 
            "min" : [
                0
            ], 
            "type" : "SCALAR"
        }, 
        {
            "bufferView" : 1, 
            "componentType" : 5126, 
            "count" : 13420, 
            "max" : [
                0.5, 
                0.10333175212144852, 
                0.5
            ], 
            "min" : [
                -0.4004155695438385, 
                0.020071610808372498, 
                -0.5
            ], 
            "type" : "VEC3"
        }, 
        {
            "bufferView" : 2, 
            "componentType" : 5126, 
            "count" : 13420, 
            "max" : [
                0.7693105936050415, 
                1.0, 
                0.6777855753898621
            ], 
            "min" : [
                -0.6097903251647949, 
                0.6363719701766968, 
                -0.5932798385620117
            ], 
            "type" : "VEC3"
        }, 
        {
            "bufferView" : 3, 
            "componentType" : 5126, 
            "count" : 13420, 
            "max" : [
                0.10360885411500931, 
                0.9941666126251221, 
                0.988945722579956, 
                1.0
            ], 
            "min" : [
                -1.0, 
                -0.995659589767456, 
                -0.9815255999565125, 
                1.0
            ], 
            "type" : "VEC4"
        }, 
        {
            "bufferView" : 4, 
            "componentType" : 5126, 
            "count" : 13420, 
            "max" : [
                0.7379561066627502, 
                0.993839839939028
            ], 
            "min" : [
                0.0, 
                0.0
            ], 
            "type" : "VEC2"
        }
    ], 
    "asset" : {
        "generator" : "Khronos Blender glTF 2.0 exporter", 
        "version" : "2.0"
    }, 
    "bufferViews" : [
        {
            "buffer" : 0, 
            "byteLength" : 158268, 
            "byteOffset" : 0, 
            "target" : 34963
        }, 
        {
            "buffer" : 0, 
            "byteLength" : 161040, 
            "byteOffset" : 158268, 
            "target" : 34962
        }, 
        {
            "buffer" : 0, 
            "byteLength" : 161040, 
            "byteOffset" : 319308, 
            "target" : 34962
        }, 
        {
            "buffer" : 0, 
            "byteLength" : 214720, 
            "byteOffset" : 480348, 
            "target" : 34962
        }, 
        {
            "buffer" : 0, 
            "byteLength" : 107360, 
            "byteOffset" : 695068, 
            "target" : 34962
        }
    ], 
    "buffers" : [
        {
            "byteLength" : 802428, 
            "uri" : "map_ucsc.bin"
        }
    ], 
    "images" : [
        {
            "uri" : "map_ucsc_v2.png"
        }
    ], 
    "materials" : [
        {
            "name" : "Material.001", 
            "pbrMetallicRoughness" : {
                "baseColorFactor" : [
                    0.800000011920929, 
                    0.800000011920929, 
                    0.800000011920929, 
                    1.0
                ], 
                "baseColorTexture" : {
                    "index" : 0
                }, 
                "metallicFactor" : 0.0
            }
        }
    ], 
    "meshes" : [
        {
            "name" : "map_ucsc", 
            "primitives" : [
                {
                    "attributes" : {
                        "NORMAL" : 2, 
                        "POSITION" : 1, 
                        "TANGENT" : 3, 
                        "TEXCOORD_0" : 4
                    }, 
                    "indices" : 0, 
                    "material" : 0
                }
            ]
        }
    ], 
    "nodes" : [
        {
            "mesh" : 0, 
            "name" : "map_ucsc"
        }
    ], 
    "samplers" : [
        {}
    ], 
    "scene" : 0, 
    "scenes" : [
        {
            "name" : "Scene", 
            "nodes" : [
                0
            ]
        }
    ], 
    "textures" : [
        {
            "sampler" : 0, 
            "source" : 0
        }
    ]
}
